<svg width="32" height="32" viewBox="0 0 32 32" fill="none" xmlns="http://www.w3.org/2000/svg">
<g clip-path="url(#clip0_687_509)">
<path d="M19.1742 8.13425V7H-8V25H-6.80733V16.863H19.1742M19.1742 8.13425H-6.80733V15.7534H19.1742M19.1742 8.13425H22.8715C24.0324 8.13425 24.9547 8.47945 25.6385 9.16986C26.3382 9.84384 26.6881 10.7644 26.6881 11.9315C26.6881 13.0822 26.3382 14.011 25.6385 14.7178C24.9547 15.4082 24.0324 15.7534 22.8715 15.7534H19.1742M19.1742 8.13425V15.7534M19.1742 15.7534V16.863M19.1742 16.863H22.633L26.3945 24.6397C26.5011 24.86 26.7243 25 26.969 25V25C27.443 25 27.7516 24.5015 27.5402 24.0772L23.9211 16.8137C25.1455 16.6329 26.1076 16.1068 26.8073 15.2356C27.5229 14.3644 27.8807 13.2795 27.8807 11.9808C27.8807 10.9616 27.674 10.0822 27.2605 9.34246C26.863 8.5863 26.2905 8.01096 25.5431 7.61644C24.7957 7.20548 23.9052 7 22.8715 7H17.9816V24.4037C17.9816 24.733 18.2486 25 18.5779 25V25C18.9073 25 19.1742 24.733 19.1742 24.4037V16.863ZM9 7V24.4037C9 24.733 9.26699 25 9.59633 25V25C9.92568 25 10.1927 24.733 10.1927 24.4037V16.863M10.1927 8.13425V15.7534" stroke="#F85B0C"/>
</g>
<defs>
<clipPath id="clip0_687_509">
<rect width="32" height="32" fill="white"/>
</clipPath>
</defs>
</svg>
